<?xml version="1.0" encoding="UTF-8" standalone="no"?>
<!-- Created with Inkscape (http://www.inkscape.org/) -->

<svg
   version="1.1"
   id="svg2"
   width="600"
   height="600"
   viewBox="0 0 600 600"
   sodipodi:docname="2007.i126.002_medieval_set-16.eps"
   xmlns:inkscape="http://www.inkscape.org/namespaces/inkscape"
   xmlns:sodipodi="http://sodipodi.sourceforge.net/DTD/sodipodi-0.dtd"
   xmlns="http://www.w3.org/2000/svg"
   xmlns:svg="http://www.w3.org/2000/svg">
  <defs
     id="defs6" />
  <sodipodi:namedview
     id="namedview4"
     pagecolor="#ffffff"
     bordercolor="#000000"
     borderopacity="0.25"
     inkscape:showpageshadow="2"
     inkscape:pageopacity="0.0"
     inkscape:pagecheckerboard="0"
     inkscape:deskcolor="#d1d1d1" />
  <g
     id="g8"
     inkscape:groupmode="layer"
     inkscape:label="ink_ext_XXXXXX"
     transform="matrix(1.3333333,0,0,-1.3333333,0,600)">
    <g
       id="g10"
       transform="scale(0.1)">
      <path
         d="m 795.75,1545.19 44.109,222.14 c 4.524,22.79 25.903,38.2 48.95,35.28 l 23.16,-2.93 c 27.578,-3.49 45.14,-31.25 36.488,-57.67 l -72.707,-221.95 -80,25.13"
         style="fill:#603f36;fill-opacity:1;fill-rule:nonzero;stroke:none"
         id="path12" />
      <path
         d="M 570.223,541.082 542.578,743.98 792.684,1554.32 876.313,1524.4 724.074,684.629 570.223,541.082"
         style="fill:#879191;fill-opacity:1;fill-rule:nonzero;stroke:none"
         id="path14" />
      <path
         d="M 730.781,1353.76 593.652,909.469 c 36.411,-96.18 78.032,-177.199 118.946,-235.547 l 11.476,10.707 89.348,492.871 c -25.715,67.19 -53.938,126.78 -82.641,176.26"
         style="fill:#acbcbb;fill-opacity:1;fill-rule:nonzero;stroke:none"
         id="path16" />
      <path
         d="M 821.906,1518.75 635.23,780.582 l -3.55,-51.531 26.648,39.09 177.692,748.079 -14.114,2.53"
         style="fill:#657272;fill-opacity:1;fill-rule:nonzero;stroke:none"
         id="path18" />
      <path
         d="m 973.727,1469.72 -293.247,63.25 c -17.238,3.71 -29.597,20.04 -27.808,36.71 l 0.367,3.4 c 1.856,17.3 18.172,28.25 36.024,24.19 l 292.878,-66.65 c 18.589,-4.23 30.999,-22.91 26.789,-40.34 -3.67,-15.18 -18.785,-24.06 -35.003,-20.56"
         style="fill:#7f4a3d;fill-opacity:1;fill-rule:nonzero;stroke:none"
         id="path20" />
      <path
         d="m 980.836,1500.81 -293.25,63.25 c -13.301,2.87 -23.613,13.26 -26.848,25.51 -4.179,-4.27 -6.992,-9.91 -7.699,-16.49 l -0.367,-3.4 c -1.789,-16.67 10.57,-32.99 27.808,-36.71 l 293.247,-63.25 c 16.218,-3.5 31.333,5.38 35.003,20.56 1.4,5.81 0.82,11.73 -1.09,17.23 -6.75,-6.15 -16.546,-8.91 -26.804,-6.7"
         style="fill:#603f36;fill-opacity:1;fill-rule:nonzero;stroke:none"
         id="path22" />
      <path
         d="m 918.102,1816.09 -27.879,3.53 c -27.743,3.51 -53.477,-15.03 -58.922,-42.46 l -7.551,-38.02 c -2.074,-10.46 4.52,-20.67 14.898,-23.07 l 87.758,-20.34 c 9.957,-2.31 20.028,3.36 23.211,13.08 l 12.406,37.87 c 10.418,31.8 -10.726,65.21 -43.921,69.41"
         style="fill:#e5a34c;fill-opacity:1;fill-rule:nonzero;stroke:none"
         id="path24" />
      <path
         d="m 861.773,1758.71 c 0,-17.17 13.926,-31.09 31.098,-31.09 17.172,0 31.094,13.92 31.094,31.09 0,17.17 -13.922,31.09 -31.094,31.09 -17.172,0 -31.098,-13.92 -31.098,-31.09"
         style="fill:#b74227;fill-opacity:1;fill-rule:nonzero;stroke:none"
         id="path26" />
      <path
         d="m 663.773,1564.15 c 0,-12.57 10.192,-22.76 22.762,-22.76 12.574,0 22.766,10.19 22.766,22.76 0,12.57 -10.192,22.77 -22.766,22.77 -12.57,0 -22.762,-10.2 -22.762,-22.77"
         style="fill:#e5a34c;fill-opacity:1;fill-rule:nonzero;stroke:none"
         id="path28" />
      <path
         d="m 951.895,1498.85 c 0,-12.78 10.367,-23.15 23.152,-23.15 12.789,0 23.152,10.37 23.152,23.15 0,12.79 -10.363,23.15 -23.152,23.15 -12.785,0 -23.152,-10.36 -23.152,-23.15"
         style="fill:#e5a34c;fill-opacity:1;fill-rule:nonzero;stroke:none"
         id="path30" />
      <path
         d="m 803.586,1411.35 -35.574,102.74 36.097,73.19 87.852,-17.72 -4.305,-81.28 -84.07,-76.93"
         style="fill:#e5a34c;fill-opacity:1;fill-rule:nonzero;stroke:none"
         id="path32" />
      <path
         d="m 818.48,1470.52 -17.3,49.97 17.554,35.6 42.731,-8.62 -2.477,-38.71 -40.508,-38.24"
         style="fill:#b74227;fill-opacity:1;fill-rule:nonzero;stroke:none"
         id="path34" />
      <path
         d="m 960.168,1498.85 c 0,-8.22 6.66,-14.88 14.879,-14.88 8.219,0 14.879,6.66 14.879,14.88 0,8.22 -6.66,14.88 -14.879,14.88 -8.219,0 -14.879,-6.66 -14.879,-14.88"
         style="fill:#b74227;fill-opacity:1;fill-rule:nonzero;stroke:none"
         id="path36" />
      <path
         d="m 672.434,1564.15 c 0,-7.79 6.316,-14.1 14.101,-14.1 7.789,0 14.106,6.31 14.106,14.1 0,7.79 -6.317,14.1 -14.106,14.1 -7.785,0 -14.101,-6.31 -14.101,-14.1"
         style="fill:#b74227;fill-opacity:1;fill-rule:nonzero;stroke:none"
         id="path38" />
      <path
         d="m 818.48,1470.52 -17.3,49.97 17.554,35.6 10.614,-39.91 32.117,31.29 -2.477,-38.71 -40.508,-38.24"
         style="fill:#992e1c;fill-opacity:1;fill-rule:nonzero;stroke:none"
         id="path40" />
      <path
         d="m 818.48,1470.52 25.36,23.94 -13.27,25.16 -22.871,-17.97 10.781,-31.13"
         style="fill:#b74227;fill-opacity:1;fill-rule:nonzero;stroke:none"
         id="path42" />
      <path
         d="m 1162.95,2116.74 655.64,-140.37 h 461.97 l 129.71,49.75 -28.43,63.97 -208.46,-65.68 -270,-1.77 -653.37,170.5 -133.26,5.33 46.2,-81.73"
         style="fill:#ed673e;fill-opacity:1;fill-rule:nonzero;stroke:none"
         id="path44" />
      <path
         d="m 1547.95,2115.39 c 38.89,-48.37 146.37,-102.08 282.95,-139.02 h 447.98 c 3.12,4.27 5.39,8.82 6.49,13.71 4.14,18.34 -6.91,39.01 -29.8,60.22 l -82.19,-25.89 -270,-1.77 -355.43,92.75"
         style="fill:#ffb56c;fill-opacity:1;fill-rule:nonzero;stroke:none"
         id="path46" />
      <path
         d="m 1957.53,1600.57 h -189.5 c 13.04,-103.05 7.89,-198.84 -54.27,-271.85 l 294.34,8 c -73.73,71.44 -77.59,163.17 -50.57,263.85"
         style="fill:#353a3a;fill-opacity:1;fill-rule:nonzero;stroke:none"
         id="path48" />
      <path
         d="m 1768.14,1448.35 c 24.87,7.1 51.36,10.97 78.88,10.97 35.93,0 70.14,-6.55 101.23,-18.36 -11.35,49.01 -5.94,102.89 9.28,159.61 h -189.5 c 6.77,-53.42 8.54,-104.86 0.11,-152.22"
         style="fill:#232626;fill-opacity:1;fill-rule:nonzero;stroke:none"
         id="path50" />
      <path
         d="m 2080.73,1344.71 h -504.74 l -32.81,-53.3 h 570.36 l -32.81,53.3"
         style="fill:#494f4f;fill-opacity:1;fill-rule:nonzero;stroke:none"
         id="path52" />
      <path
         d="m 2158.85,1704.52 h -706.28 l 149.25,-178.57 h 446.22 l 110.81,178.57"
         style="fill:#353a3a;fill-opacity:1;fill-rule:nonzero;stroke:none"
         id="path54" />
      <path
         d="m 2238.8,1811.76 -934.95,26.02 95.41,-221.22 h 767.58 l 71.96,195.2"
         style="fill:#353a3a;fill-opacity:1;fill-rule:nonzero;stroke:none"
         id="path56" />
      <path
         d="m 2188.01,1673.99 c -82.41,15.84 -681.57,-8.94 -756.53,-57.42 h 735.36 l 21.17,57.42"
         style="fill:#494f4f;fill-opacity:1;fill-rule:nonzero;stroke:none"
         id="path58" />
      <path
         d="M 2479.56,1988.81 H 969.273 c 0,0 248.757,-365.18 1275.747,-287.72 l 234.54,243.45 v 44.27"
         style="fill:#494f4f;fill-opacity:1;fill-rule:nonzero;stroke:none"
         id="path60" />
      <path
         d="M 2374.09,1988.81 H 969.273 c 0,0 80.197,-117.59 337.187,-205.16 68.87,-5.26 141.03,-8.06 215.4,-8.06 426.99,0 781.49,92.11 852.23,213.22"
         style="fill:#657272;fill-opacity:1;fill-rule:nonzero;stroke:none"
         id="path62" />
      <path
         d="m 2695.44,2799.92 c -389.12,410.44 -287.84,807.56 -287.84,807.56 l 330.49,8 c 0,0 191,-270.08 244.31,-320.72 53.3,-50.64 -286.96,-494.84 -286.96,-494.84"
         style="fill:#af9c80;fill-opacity:1;fill-rule:nonzero;stroke:none"
         id="path64" />
      <path
         d="m 2460.15,3526 c -22.73,1.77 -45.24,-3.93 -67.02,-15.91 -6.54,-127.76 15.66,-380.58 235.39,-648.94 9.82,45.35 17,93.63 20.92,143.95 21.66,277.84 -63.09,511.06 -189.29,520.9"
         style="fill:#d6c7b0;fill-opacity:1;fill-rule:nonzero;stroke:none"
         id="path66" />
      <path
         d="m 2587.49,2376.11 c -28.43,-444.2 151.48,-1798.09 151.48,-1798.09 l 31.99,10.66 c 203.29,580.52 416.21,1176.04 451.31,1494.3 l -255.86,271.85 -378.92,21.28"
         style="fill:#996b5b;fill-opacity:1;fill-rule:nonzero;stroke:none"
         id="path68" />
      <path
         d="m 2689.22,1175.03 c 80.65,0 148.95,-137.39 172.47,-327.28 171.96,492.46 330.7,964.31 360.58,1235.23 l -255.86,271.85 -378.92,21.28 c -15.92,-248.75 33.5,-782.77 80.07,-1204.56 7.11,2.21 14.33,3.48 21.66,3.48"
         style="fill:#825346;fill-opacity:1;fill-rule:nonzero;stroke:none"
         id="path70" />
      <path
         d="M 2728.32,1981.7 C 3076.57,1324.28 3751.76,691.742 3751.76,691.742 l 24.87,7.098 c 0,0 -317.16,1386.8 -487.73,1589.36 l -333.15,70.18 -227.43,-376.68"
         style="fill:#996b5b;fill-opacity:1;fill-rule:nonzero;stroke:none"
         id="path72" />
      <path
         d="m 3419.58,1248.68 c 54.19,33.42 156.05,-26.87 258.4,-142.61 -107.51,426.15 -278.88,1051.26 -389.08,1182.13 l -333.15,70.18 -227.43,-376.68 c 181.08,-341.85 450.54,-676.92 667.53,-919.88 -22.2,92.22 -16.03,162.34 23.73,186.86"
         style="fill:#825346;fill-opacity:1;fill-rule:nonzero;stroke:none"
         id="path74" />
      <path
         d="m 3325.32,2296.2 c 71.08,-88.84 182.13,-370.47 182.13,-370.47 0,0 -228.32,-155.47 -459.31,-159.02 l -113.72,472.63 390.9,56.86"
         style="fill:#c4b59b;fill-opacity:1;fill-rule:nonzero;stroke:none"
         id="path76" />
      <path
         d="m 3284.12,1844.06 c -37.6,163.53 -12.85,308.81 55.29,324.48 23.85,5.48 49.84,-5.69 75.18,-29.46 -30.05,62.82 -62.49,123.65 -89.27,157.12 l -390.9,-56.86 113.72,-472.63 c 85.05,1.31 169.69,23.23 242.75,50.38 -2.39,8.85 -4.67,17.83 -6.77,26.97"
         style="fill:#af9c80;fill-opacity:1;fill-rule:nonzero;stroke:none"
         id="path78" />
      <path
         d="m 3337.76,2331.73 c 0,0 -65.74,-72.85 -271.85,-126.15 l 1.78,-42.65 c 188.34,23.1 277.18,110.17 277.18,110.17 l -7.11,58.63"
         style="fill:#51332c;fill-opacity:1;fill-rule:nonzero;stroke:none"
         id="path80" />
      <path
         d="m 2947.75,2218.9 c 232.64,-26.73 399.78,63.97 407.78,98.62 7.99,34.65 -18.66,218.54 -2.67,290.5 16,71.97 74.63,301.17 2.67,402.45 -71.96,101.28 -309.17,255.86 -391.79,285.18 -82.62,29.32 -271.85,-133.26 -325.15,-263.86 -53.31,-130.59 -85.29,-333.15 -61.3,-365.13 23.98,-31.98 18.65,-154.58 18.65,-154.58 0,0 119.94,-266.52 351.81,-293.18"
         style="fill:#af9c80;fill-opacity:1;fill-rule:nonzero;stroke:none"
         id="path82" />
      <path
         d="m 2603.94,1288.75 c 408.66,-60.42 721.38,49.75 721.38,49.75 0,0 -223.88,995.01 -223.88,1098.06 0,103.06 17.77,277.19 17.77,277.19 l -509.94,96.83 c -78.18,-415.77 -75.35,-761.47 -5.33,-1521.83"
         style="fill:#603f36;fill-opacity:1;fill-rule:nonzero;stroke:none"
         id="path84" />
      <path
         d="m 2863.75,2762.26 c 33.36,-154.24 124.34,-444.56 153.3,-791.22 22.54,-269.84 81.97,-515.79 31.42,-689.3 170.1,19.22 276.85,56.76 276.85,56.76 0,0 -223.88,995.01 -223.88,1098.06 0,103.06 17.77,277.19 17.77,277.19 l -255.46,48.51"
         style="fill:#51332c;fill-opacity:1;fill-rule:nonzero;stroke:none"
         id="path86" />
      <path
         d="m 2993.06,3797.6 -58.63,55.08 c 0,0 -275.41,0 -385.57,-62.19 -110.16,-62.19 -177.68,-220.32 -145.7,-259.41 31.98,-39.09 270.62,-69.21 373.13,17.76 58.63,49.76 216.77,248.76 216.77,248.76"
         style="fill:#ffa77b;fill-opacity:1;fill-rule:nonzero;stroke:none"
         id="path88" />
      <path
         d="m 2967.6,3821.52 c -14.67,-59.11 -161.47,-138.7 -350.85,-186.63 -77.87,-19.71 -151.93,-31.27 -215.03,-34.94 -8.78,-30.65 -9,-56.11 1.44,-68.87 31.98,-39.09 270.62,-69.21 373.13,17.76 58.63,49.76 216.77,248.76 216.77,248.76 l -25.46,23.92"
         style="fill:#ea875c;fill-opacity:1;fill-rule:nonzero;stroke:none"
         id="path90" />
      <path
         d="m 3278.24,3095.76 c 0,0 -165.25,-167.91 -255.86,-466.41 l 31.98,-26.65 c 71.96,290.51 245.2,471.74 245.2,471.74 l -21.32,21.32"
         style="fill:#603f36;fill-opacity:1;fill-rule:nonzero;stroke:none"
         id="path92" />
      <path
         d="m 2967.3,3301.87 c 0,0 -189.45,-187.27 -323.1,-520.2 l 28.15,-29.72 c 113.83,324.01 323.36,537.02 323.36,537.02 l -28.41,12.9"
         style="fill:#603f36;fill-opacity:1;fill-rule:nonzero;stroke:none"
         id="path94" />
      <path
         d="m 2738.98,2951.84 c 43.87,-129.44 123.72,-125.43 237.29,-119.72 113.58,5.71 182.57,119.49 182.57,119.49 0,0 47.12,18.38 60.15,42.16 13.04,23.78 -3.04,95.92 -3.04,95.92 0,0 37.97,38.47 37.63,82.03 -0.5,65.96 -39.31,79.29 -39.31,79.29 0,0 11.16,40.55 -0.03,86.24 28.68,-16.95 67.19,42.16 33.02,84.92 -34.17,42.75 -62.3,36 -62.3,36 0,0 24.4,10.12 -11.1,43.92 -35.5,33.79 -93.53,20.2 -93.53,20.2 0,0 -36.16,70.62 -116.11,45.3 -54.68,-17.31 -45.99,-76.58 -45.99,-76.58 -36.05,8.92 -54.28,-1.07 -45.2,-40.04 0,0 -13.13,4.64 -30.27,2.61 -22.5,-2.66 -37.34,-24.85 -32.92,-47.08 4.49,-22.54 -16.82,-42.89 -16.82,-42.89 0,0 -31.33,14.71 -49.16,-19.98 -17.82,-34.7 7.97,-46.01 7.97,-46.01 0,0 -29.2,14.55 -41.88,-16.34 -12.68,-30.88 -4.95,-42.94 -4.95,-42.94 0,0 -41.62,13.92 -56.78,-38.44 -15.16,-52.35 -6.89,-110.65 12.02,-132.82 0,0 -13.49,-24.7 10.58,-68.85 25.48,-46.76 68.16,-46.39 68.16,-46.39"
         style="fill:#7c5042;fill-opacity:1;fill-rule:nonzero;stroke:none"
         id="path96" />
      <path
         d="m 3033.36,3565.52 c -3.5,1.54 -7.21,2.86 -11.12,3.98 0.76,-2.18 1.1,-3.46 1.1,-3.46 0,0 3.85,0.05 10.02,-0.52"
         style="fill:#6b4136;fill-opacity:1;fill-rule:nonzero;stroke:none"
         id="path98" />
      <path
         d="m 3214.27,3251.01 c 0,0 11.16,40.55 -0.03,86.24 28.68,-16.95 67.19,42.16 33.02,84.92 -34.17,42.75 -62.3,36 -62.3,36 0,0 24.4,10.12 -11.1,43.92 -18.55,17.66 -43.19,22.34 -62.54,22.82 25.82,-39.2 0.57,-43.84 0.57,-43.84 0,0 28.92,0.6 53.18,-48.46 24.27,-49.07 -25.96,-98.6 -50.37,-75.92 1.19,-47.02 -18.36,-84.26 -18.36,-84.26 0,0 35.07,-21.3 21.49,-85.86 -8.96,-42.62 -54.27,-72.11 -54.27,-72.11 0,0 0.33,-73.9 -17.48,-94.36 -17.81,-20.45 -67.76,-28.36 -67.76,-28.36 0,0 -91.68,-96.44 -203.85,-77.79 -7.34,1.22 -14.52,2.41 -21.56,3.62 45.91,-94.33 120.91,-90.6 223.36,-85.45 113.58,5.71 182.57,119.49 182.57,119.49 0,0 47.11,18.38 60.15,42.16 13.04,23.78 -3.04,95.92 -3.04,95.92 0,0 37.97,38.47 37.63,82.03 -0.5,65.96 -39.31,79.29 -39.31,79.29"
         style="fill:#6b4136;fill-opacity:1;fill-rule:nonzero;stroke:none"
         id="path100" />
      <path
         d="m 2854.47,3213.03 c -49.75,14.21 -28.43,99.5 -28.43,99.5 l 206.11,-60.41 c 0,0 41.75,-80.18 -15.1,-89.06 -56.86,-8.89 -111.28,17.99 -111.28,17.99 l -51.3,31.98"
         style="fill:#ffa77b;fill-opacity:1;fill-rule:nonzero;stroke:none"
         id="path102" />
      <path
         d="m 2832.7,3267.22 c 40.43,-20.29 50.97,-15.82 50.97,-15.82 -27.67,23.66 -47.02,32.98 -50.97,15.82"
         style="fill:#dd704a;fill-opacity:1;fill-rule:nonzero;stroke:none"
         id="path104" />
      <path
         d="m 2831.22,3242.56 c 45.28,-1.37 52.94,7.15 52.94,7.15 -35.15,9.81 -42.7,-0.61 -52.94,-7.15"
         style="fill:#dd704a;fill-opacity:1;fill-rule:nonzero;stroke:none"
         id="path106" />
      <path
         d="m 2883.48,3286.84 c -30.21,-63.97 -58.6,-127.11 -29.68,-127.11 24.65,0 61.87,17.06 61.87,17.06 l 11.5,39.84 c 4.87,39.04 -15.37,57.87 -43.69,70.21"
         style="fill:#ea7754;fill-opacity:1;fill-rule:nonzero;stroke:none"
         id="path108" />
      <path
         d="m 2773.18,3367.61 c 34.93,-115.38 289.08,-135.52 387.78,-133.08 52.11,1.28 60.59,23.1 60.59,23.1 9.88,27.93 7.76,54.51 -4.84,79.92 -189.05,-22.71 -375.81,21.32 -407.32,71.73 l -36.21,-41.67"
         style="fill:#3f2924;fill-opacity:1;fill-rule:nonzero;stroke:none"
         id="path110" />
      <path
         d="m 3126.36,3210.64 c 1.8,35.35 46.66,45.06 65.83,29.82 19.17,-15.25 -37.28,-94.2 -53.91,-80.87 -16.64,13.33 -11.92,51.05 -11.92,51.05"
         style="fill:#ea7754;fill-opacity:1;fill-rule:nonzero;stroke:none"
         id="path112" />
      <path
         d="m 3310.22,3042.46 c -119.93,-101.28 -298.5,-444.21 -402.45,-470.86 -103.94,-26.65 11.55,-309.16 136.82,-298.5 125.26,10.66 217.88,103.15 286.95,161.69 157.25,133.26 207.89,575.68 -21.32,607.67"
         style="fill:#c4b59b;fill-opacity:1;fill-rule:nonzero;stroke:none"
         id="path114" />
      <path
         d="m 3287.97,2869.8 c -21.99,24.74 -49.17,43.15 -79.94,55.64 -104.87,-140.12 -223.11,-334.06 -300.26,-353.84 -103.94,-26.65 11.55,-309.16 136.82,-298.5 2.31,0.19 4.53,0.61 6.82,0.86 35.36,20.73 70.04,45.72 102.96,75 184.05,163.69 243.86,396.88 133.6,520.84"
         style="fill:#d6c7b0;fill-opacity:1;fill-rule:nonzero;stroke:none"
         id="path116" />
      <path
         d="m 2006.55,2259.93 934.62,-188.79 44.52,74.15 -988.89,139.38 9.75,-24.74"
         style="fill:#3a3a3a;fill-opacity:1;fill-rule:nonzero;stroke:none"
         id="path118" />
      <path
         d="M 2408.06,1306.51 H 1144.14 l -56.71,-771.131 h 1420.56 l -99.93,771.131"
         style="fill:#874736;fill-opacity:1;fill-rule:nonzero;stroke:none"
         id="path120" />
      <path
         d="m 2274.1,1212.92 -980.36,54.5 -43.73,-732.041 h 1095.4 l -71.31,677.541"
         style="fill:#9b5843;fill-opacity:1;fill-rule:nonzero;stroke:none"
         id="path122" />
      <path
         d="m 1640.28,1069.93 -496.14,236.58 -56.71,-771.131 h 706.28 l -153.43,534.551"
         style="fill:#874736;fill-opacity:1;fill-rule:nonzero;stroke:none"
         id="path124" />
      <path
         d="m 724.961,550.48 c -117.27,431.77 213.215,866.2 213.215,866.2 L 1564.5,1006.23 C 1370.12,725.109 1144.86,490.672 724.961,550.48"
         style="fill:#494f4f;fill-opacity:1;fill-rule:nonzero;stroke:none"
         id="path126" />
      <path
         d="m 2117.39,1825.42 -26.95,30.13 40.87,-17.77 51.52,24.87 -31.98,-39.09 24.88,-35.53 -40.87,17.77 -31.98,-24.88 14.51,44.5"
         style="fill:#ffb96c;fill-opacity:1;fill-rule:nonzero;stroke:none"
         id="path128" />
      <path
         d="m 1756.43,1606.77 18.34,25.49 -6.64,-33.98 31.03,-21.93 -38.54,4.72 -22.8,-24.82 6.64,33.98 -24.23,20.1 36.2,-3.56"
         style="fill:#ffb96c;fill-opacity:1;fill-rule:nonzero;stroke:none"
         id="path130" />
      <path
         d="m 1554.99,2447.77 27.38,38.04 -9.91,-50.71 46.3,-32.73 -57.51,7.05 -34.03,-37.04 9.91,50.71 -36.15,29.99 54.01,-5.31"
         style="fill:#ed673e;fill-opacity:1;fill-rule:nonzero;stroke:none"
         id="path132" />
      <path
         d="m 1537.91,1886.44 -3.12,31.9 17.81,-30.52 38.56,3.26 -32.72,-21.52 -0.75,-34.39 -17.81,30.52 -32.11,-0.91 30.14,21.66"
         style="fill:#ffb96c;fill-opacity:1;fill-rule:nonzero;stroke:none"
         id="path134" />
      <path
         d="m 3790.85,535.379 h 163.46 c 0,0 17.79,17.769 -31.76,33.762 -49.55,15.988 -56.83,17.757 -56.83,17.757 0,0 -70.18,135.043 -109.62,138.602 -39.44,3.551 -17.55,-65.531 -1.2,-95.949 22.06,-41.039 35.95,-94.172 35.95,-94.172"
         style="fill:#996b5b;fill-opacity:1;fill-rule:nonzero;stroke:none"
         id="path136" />
      <path
         d="M 2802.94,535.379 H 2591.5 c 0,0 -14.21,37.312 31.98,40.859 46.2,3.563 88.84,40.871 120.83,60.422 31.98,19.539 58.63,-101.281 58.63,-101.281"
         style="fill:#996b5b;fill-opacity:1;fill-rule:nonzero;stroke:none"
         id="path138" />
      <path
         d="m 2387.17,3456.45 c -41.37,26.94 -5.33,154.59 14.21,165.25 19.55,10.66 331.21,-49.75 405.11,-49.75 21.33,0 22.19,-34.68 5.34,-51.53 -26.66,-26.66 -348.26,-113.72 -424.66,-63.97"
         style="fill:#603f36;fill-opacity:1;fill-rule:nonzero;stroke:none"
         id="path140" />
      <path
         d="m 2866.7,2559.64 c 6.91,22.11 53.55,52.87 112.19,65.29 58.63,12.42 255.85,-33.82 286.04,-108.45 30.19,-74.64 -39.15,-262.96 -167.08,-241.61 -127.93,21.35 -266.72,171 -231.15,284.77"
         style="fill:#603f36;fill-opacity:1;fill-rule:nonzero;stroke:none"
         id="path142" />
      <path
         d="m 2539.13,2327.56 c 111.36,89.96 291.43,244.7 400.9,253.14 109.47,8.44 200.15,-44.53 231.31,-98.58 31.16,-54.05 7.9,-155.69 -50.94,-190.4 -58.84,-34.71 -487.14,-118.12 -487.14,-118.12 l -94.13,153.96"
         style="fill:#ea875c;fill-opacity:1;fill-rule:nonzero;stroke:none"
         id="path144" />
      <path
         d="m 2940.03,2580.7 c -109.47,-8.44 -289.54,-163.18 -400.9,-253.14 l 88.55,-144.85 c 42.65,4.6 41.92,40.67 87.59,54.01 208.67,60.95 399.39,165.62 369.66,267.37 -8.93,30.59 -32.71,54.91 -67.17,72.4 -24.32,4.59 -50.44,6.31 -77.73,4.21"
         style="fill:#ffa77b;fill-opacity:1;fill-rule:nonzero;stroke:none"
         id="path146" />
      <path
         d="m 2564.79,2345.13 c -61.53,-15.36 -105.22,-11.74 -136.76,-36.5 -31.53,-24.75 -52.44,-149.37 -53.72,-171.6 -1.27,-22.22 46.81,-40.75 61.01,-45.82 14.2,-5.08 159.89,-30.48 187.19,-17.56 27.31,12.92 100.37,157.59 100.37,157.59 l -158.09,113.89"
         style="fill:#ffa77b;fill-opacity:1;fill-rule:nonzero;stroke:none"
         id="path148" />
      <path
         d="m 2576.32,2105.63 c -27.31,-12.92 -173,12.48 -187.2,17.56 -2.97,1.06 -7.48,2.75 -12.67,4.9 9.26,-18.12 46.63,-32.51 58.87,-36.88 14.2,-5.08 159.89,-30.48 187.19,-17.56 27.31,12.92 100.37,157.59 100.37,157.59 l -10.64,7.67 c -39.08,-42.3 -115.82,-123.76 -135.92,-133.28"
         style="fill:#ea875c;fill-opacity:1;fill-rule:nonzero;stroke:none"
         id="path150" />
      <path
         d="m 3028.02,1279.56 c -22,250.91 -117.58,472.93 -117.58,472.93 0,0 16.97,-220.81 -18.94,-481.38 48.72,1.09 94.36,4.19 136.52,8.45"
         style="fill:#51332c;fill-opacity:1;fill-rule:nonzero;stroke:none"
         id="path152" />
      <path
         d="m 2746.08,3902.43 c -26.58,18.99 3.56,62.19 30.21,62.19 26.65,0 502.84,-234.54 502.84,-234.54 l -17.77,-30.2 c 0,0 -502.84,193.67 -515.28,202.55"
         style="fill:#603f36;fill-opacity:1;fill-rule:nonzero;stroke:none"
         id="path154" />
      <path
         d="m 3199.17,3635.91 94.17,161.69 c 0,0 85.29,3.55 110.16,-33.76 l -106.61,-184.79 -97.72,56.86"
         style="fill:#3f2924;fill-opacity:1;fill-rule:nonzero;stroke:none"
         id="path156" />
      <path
         d="m 2172.17,2013.68 54.72,486.14 c -115.81,41.9 -229.39,62.45 -340.33,57.77 l -64.43,-513.75 c 138.6,-44.37 220.33,-40.89 350.04,-30.16"
         style="fill:#3a3a3a;fill-opacity:1;fill-rule:nonzero;stroke:none"
         id="path158" />
      <path
         d="m 2156.4,2012.41 c 5.22,0.42 10.39,0.83 15.77,1.27 l 54.72,486.14 c -15.17,5.49 -30.3,10.57 -45.4,15.32 -19.44,-85.07 -31.58,-205.14 -31.58,-338.34 0,-57.87 2.3,-113.25 6.49,-164.39"
         style="fill:#4c4f4f;fill-opacity:1;fill-rule:nonzero;stroke:none"
         id="path160" />
      <path
         d="m 1886.56,2557.59 -64.43,-513.75 c 32.69,-10.46 62.15,-18.19 89.89,-23.86 19.46,81.61 37.72,170.15 53.85,263.02 16.42,94.51 29.24,185.54 38.49,270.18 -39.58,4.41 -78.86,6.05 -117.8,4.41"
         style="fill:#4c4f4f;fill-opacity:1;fill-rule:nonzero;stroke:none"
         id="path162" />
      <path
         d="m 2001.6,2276.65 c 0,-31.4 25.46,-56.86 56.86,-56.86 31.4,0 56.86,25.46 56.86,56.86 0,31.4 -25.46,56.86 -56.86,56.86 -31.4,0 -56.86,-25.46 -56.86,-56.86"
         style="fill:#242626;fill-opacity:1;fill-rule:nonzero;stroke:none"
         id="path164" />
      <path
         d="m 2029.14,2276.65 c 0,-16.19 13.13,-29.32 29.32,-29.32 16.19,0 29.31,13.13 29.31,29.32 0,16.19 -13.12,29.32 -29.31,29.32 -16.19,0 -29.32,-13.13 -29.32,-29.32"
         style="fill:#3a3a3a;fill-opacity:1;fill-rule:nonzero;stroke:none"
         id="path166" />
      <path
         d="m 1815.7,2044.33 -145.25,101.28 182.56,-86.62 -10.66,38.65 37.32,-38.65 33.31,18.66 -4,-27.99 129.27,12 -125.13,-42.34 c -35.51,0.49 -67.76,9.42 -97.42,25.01"
         style="fill:#ffdc9f;fill-opacity:1;fill-rule:nonzero;stroke:none"
         id="path168" />
      <path
         d="M 744.23,589.121 C 635.836,988.211 941.309,1389.76 941.309,1389.76 L 1520.23,1010.38 C 1340.56,750.531 1132.35,533.84 744.23,589.121"
         style="fill:#e5a34c;fill-opacity:1;fill-rule:nonzero;stroke:none"
         id="path170" />
      <path
         d="m 1157.86,1247.85 -216.547,141.91 c 0,0 -304.817,-400.709 -197.403,-799.381 164.91,314.262 319.98,535.161 413.95,657.471"
         style="fill:#f2b666;fill-opacity:1;fill-rule:nonzero;stroke:none"
         id="path172" />
      <path
         d="m 1130.39,1265.85 c -93.2,-130.24 -237.742,-351.541 -390.859,-658.19 1.383,-5.762 2.828,-11.519 4.379,-17.281 164.91,314.262 319.98,535.161 413.95,657.471 l -27.47,18"
         style="fill:#d18b39;fill-opacity:1;fill-rule:nonzero;stroke:none"
         id="path174" />
      <path
         d="m 758.91,626.898 c -98.765,363.09 179.574,728.422 179.574,728.422 L 1465.98,1010.16 C 1302.27,773.75 1112.55,576.609 758.91,626.898 Z m 178.965,740.472 c 0,0 -288.457,-378.608 -186.102,-754.901 366.497,-52.117 563.117,152.191 732.777,397.201 l -546.675,357.7"
         style="fill:#494f4f;fill-opacity:1;fill-rule:nonzero;stroke:none"
         id="path176" />
      <path
         d="m 2934.52,3874.98 c -10.61,6.59 -15.26,18.75 -11.59,29.92 6.66,20.32 8.8,32.04 22.82,35.95 17.33,4.82 30.65,1.2 33.32,-12.06 2.66,-13.27 -10.66,-55.49 -25.32,-59.11 -5.88,-1.45 -12.91,1.38 -19.23,5.3"
         style="fill:#ea875c;fill-opacity:1;fill-rule:nonzero;stroke:none"
         id="path178" />
      <path
         d="m 2979.83,3856.29 c -10.61,6.59 -15.26,18.74 -11.59,29.91 6.66,20.32 8.8,32.04 22.82,35.95 17.32,4.83 30.65,1.21 33.32,-12.06 2.66,-13.27 -10.66,-55.49 -25.32,-59.11 -5.88,-1.45 -12.91,1.39 -19.23,5.31"
         style="fill:#ea875c;fill-opacity:1;fill-rule:nonzero;stroke:none"
         id="path180" />
      <path
         d="m 3020.29,3835.31 c -9.96,7.38 -13.45,19.85 -8.76,30.69 8.55,19.75 11.77,31.26 26.11,34.07 17.71,3.49 30.65,-1.14 32.06,-14.57 1.42,-13.42 -15.81,-54.47 -30.75,-56.95 -5.99,-1 -12.73,2.37 -18.66,6.76"
         style="fill:#ea875c;fill-opacity:1;fill-rule:nonzero;stroke:none"
         id="path182" />
      <path
         d="m 2930.72,3759.31 c 66.29,-9.19 95.23,27.88 102.14,43.25 6.91,15.38 18.02,45.73 14.71,52.76 -3.31,7.04 -74.05,49.06 -89.79,45.91 -8.88,-1.78 -25.14,-28.89 -16.66,-37.79 8.48,-8.89 40.67,-27.52 40.67,-27.52 l -2.34,-5.19 c 0,0 -120.06,-61.53 -48.73,-71.42"
         style="fill:#ea875c;fill-opacity:1;fill-rule:nonzero;stroke:none"
         id="path184" />
      <path
         d="m 3268.91,3703.43 c 0,-14.97 12.13,-27.1 27.1,-27.1 14.96,0 27.09,12.13 27.09,27.1 0,14.96 -12.13,27.09 -27.09,27.09 -14.97,0 -27.1,-12.13 -27.1,-27.09"
         style="fill:#464646;fill-opacity:1;fill-rule:nonzero;stroke:none"
         id="path186" />
      <path
         d="m 3281.79,3703.43 c 0,-7.85 6.37,-14.22 14.22,-14.22 7.85,0 14.21,6.37 14.21,14.22 0,7.85 -6.36,14.21 -14.21,14.21 -7.85,0 -14.22,-6.36 -14.22,-14.21"
         style="fill:#3f2924;fill-opacity:1;fill-rule:nonzero;stroke:none"
         id="path188" />
      <path
         d="m 2939.76,3227.02 c 44.39,-17.25 55.97,-11.99 55.97,-11.99 -30.4,21.58 -51.64,29.45 -55.97,11.99"
         style="fill:#dd704a;fill-opacity:1;fill-rule:nonzero;stroke:none"
         id="path190" />
      <path
         d="m 2999.72,3228.35 c -10.67,-1.18 -61.96,14.66 -67.29,19.33 -5.33,4.66 -13.33,28.65 -2,39.98 11.32,11.32 54.63,-9.33 63.3,-15.99 8.66,-6.67 11.99,-42.65 5.99,-43.32"
         style="fill:#7c5042;fill-opacity:1;fill-rule:nonzero;stroke:none"
         id="path192" />
      <path
         d="m 2880.2,3272.25 c -9.22,-1.46 -53.5,13.07 -58.1,17.6 -4.61,4.53 -11.51,28.31 -1.73,39.93 9.78,11.62 47.18,-7.93 54.66,-14.37 7.47,-6.44 10.35,-42.34 5.17,-43.16"
         style="fill:#7c5042;fill-opacity:1;fill-rule:nonzero;stroke:none"
         id="path194" />
      <path
         d="m 2982.38,3141.71 c -28.31,-13.27 -66.93,-18.85 -95.99,-3.73 l -3.86,-0.15 c 37.9,-27.41 103.65,-18.49 131.83,5.12 l -31.98,-1.24"
         style="fill:#3f2924;fill-opacity:1;fill-rule:nonzero;stroke:none"
         id="path196" />
      <path
         d="m 2995.28,3192.15 c -38.64,12 -55.52,34.87 -55.52,34.87 l 10.66,3.33 44.86,-38.2"
         style="fill:#dd704a;fill-opacity:1;fill-rule:nonzero;stroke:none"
         id="path198" />
      <path
         d="m 3138.05,3208.56 c 0.98,19.42 25.6,24.78 36.12,16.43 10.52,-8.37 -20.44,-51.79 -29.57,-44.47 -9.13,7.3 -6.55,28.04 -6.55,28.04"
         style="fill:#b54830;fill-opacity:1;fill-rule:nonzero;stroke:none"
         id="path200" />
      <path
         d="m 3137.96,3188.94 c -0.93,13.69 15.35,19.22 23.19,14.11 7.83,-5.12 -9.64,-37.79 -16.44,-33.32 -6.8,4.48 -6.75,19.21 -6.75,19.21"
         style="fill:#ea7754;fill-opacity:1;fill-rule:nonzero;stroke:none"
         id="path202" />
    </g>
  </g>
</svg>
